<?xml version="1.0" encoding="UTF-8"?>
<svg id="Layer_1" data-name="Layer 1" xmlns="http://www.w3.org/2000/svg" version="1.1" viewBox="0 0 333.1 493.18">
  <defs>
    <style>
      .cls-1 {
        fill: #fff;
        stroke-width: 0px;
      }
    </style>
  </defs>
  <path class="cls-1" d="M161.39,275.22c2.22-3.84,3.92-7.83,5.16-11.89,1.25,4.06,2.95,8.05,5.16,11.89,15.79,27.35,50.76,36.72,78.11,20.93,27.35-15.79,36.72-50.76,20.93-78.11-2.22-3.84-4.82-7.31-7.72-10.42,4.14.95,8.45,1.47,12.88,1.47,31.58,0,57.18-25.6,57.18-57.18s-25.6-57.18-57.18-57.18c-4.43,0-8.74.52-12.88,1.47,2.9-3.11,5.5-6.58,7.72-10.42,15.79-27.35,6.42-62.32-20.93-78.11-27.35-15.79-62.32-6.42-78.11,20.93-2.22,3.84-3.92,7.83-5.16,11.89-1.24-4.06-2.95-8.05-5.16-11.89C145.6,1.25,110.63-8.12,83.28,7.67c-27.35,15.79-36.72,50.76-20.93,78.11,2.22,3.84,4.82,7.31,7.72,10.42-4.14-.95-8.45-1.47-12.88-1.47C25.6,94.73,0,120.33,0,151.91s25.6,57.18,57.18,57.18c4.43,0,8.74-.52,12.88-1.47-2.9,3.11-5.5,6.58-7.72,10.42-15.79,27.35-6.42,62.32,20.93,78.11,27.35,15.79,62.32,6.42,78.11-20.93ZM137.96,151.91c0-15.79,12.8-28.59,28.59-28.59s28.59,12.8,28.59,28.59-12.8,28.59-28.59,28.59-28.59-12.8-28.59-28.59Z"/>
  <circle class="cls-1" cx="166.55" cy="341.33" r="28.59"/>
  <path class="cls-1" d="M219.3,493.18h-105.49c19.05-.67,37.35-10.83,47.58-28.55,2.22-3.84,3.92-7.83,5.16-11.89,1.25,4.06,2.95,8.05,5.16,11.89,10.23,17.73,28.53,27.89,47.58,28.55Z"/>
  <path class="cls-1" d="M249.83,485.56c27.35-15.79,36.72-50.76,20.93-78.11-2.22-3.84-4.82-7.31-7.72-10.42,4.14.95,8.45,1.47,12.88,1.47,31.58,0,57.18-25.6,57.18-57.18v151.86h-109.77c9.03-.32,18.12-2.79,26.49-7.62Z"/>
  <path class="cls-1" d="M57.18,398.5c4.43,0,8.74-.52,12.88-1.47-2.9,3.11-5.5,6.58-7.72,10.42-15.79,27.35-6.42,62.32,20.93,78.11,8.37,4.83,17.46,7.3,26.49,7.62H0v-151.85c0,31.58,25.61,57.17,57.18,57.17Z"/>
</svg>